# Blender v2.92.0 OBJ File: ''
# www.blender.org
o Suzanne_Suzanne.001
v 0.688189 -0.525736 0.499997
v -0.951058 0.000000 -0.309013
v 0.000000 0.000000 -1.000000
v 0.162456 -0.850654 -0.499995
v -0.425323 -0.850654 -0.309011
v 0.587786 0.000000 -0.809017
v -0.587786 0.000000 -0.809017
v 0.587786 0.000000 0.809017
v 0.951058 0.000000 -0.309013
v 0.951058 0.000000 0.309013
v -0.262869 -0.525738 0.809012
v -0.951058 0.000000 0.309013
v 0.688189 -0.525736 -0.499997
v 0.162456 -0.850654 0.499995
v -0.425323 -0.850654 0.309011
v 0.525730 -0.850652 0.000000
v -0.262869 -0.525738 -0.809012
v -0.850648 -0.525736 0.000000
v 0.850648 0.528367 0.000000
v -0.688189 0.528368 -0.499997
v -0.587786 0.000000 0.809017
v 0.000000 0.000000 1.000000
v 0.262869 0.528370 -0.809012
v -0.688189 0.528368 0.499997
v -0.525730 1.415724 0.000000
v 0.425323 1.415736 0.309011
v 0.262869 0.528370 0.809012
v -0.162456 1.415737 -0.499995
v 0.425323 1.415736 -0.309011
v -0.162456 1.415737 0.499995
v 0.000000 2.312888 0.000000
v -0.894426 0.447216 0.000000
v -0.276388 0.447220 0.850649
v 0.723607 0.447220 0.525725
v 0.723607 0.447220 -0.525725
v -0.276388 0.447220 -0.850649
v -0.723607 -0.447220 0.525725
v 0.276388 -0.447220 0.850649
v 0.894426 -0.447216 0.000000
v 0.276388 -0.447220 -0.850649
v -0.723607 -0.447220 -0.525725
v 0.000000 -1.000000 0.000000
vn -0.7948 0.1867 -0.5774
vn -0.5736 0.3296 -0.7499
vn 0.5359 0.3296 -0.7773
vn -0.8905 0.3296 -0.3138
vn 0.0233 0.3296 -0.9438
vn 0.3036 0.1867 -0.9343
vn -0.0247 -0.3304 0.9435
vn -0.3035 -0.1876 0.9342
vn 0.2792 0.4284 0.8594
vn 0.0385 -0.6617 0.7488
vn 0.2792 0.4284 -0.8594
vn -0.5706 0.3381 0.7484
vn -0.8905 0.3296 0.3138
vn 0.9018 0.4322 0.0000
vn -0.7310 0.4284 -0.5311
vn -0.5736 0.3296 0.7499
vn -0.3066 0.1256 0.9435
vn 0.8897 -0.3304 0.3151
vn -0.4713 -0.6617 0.5831
vn 0.4089 -0.6617 -0.6284
vn 0.8026 0.1256 0.5831
vn 0.7947 -0.1876 -0.5773
vn 0.9015 0.3381 -0.2700
vn 0.0218 0.3381 -0.9409
vn -0.7948 0.1867 0.5774
vn 0.9036 0.4284 0.0000
vn 0.2787 0.4322 -0.8576
vn -0.7295 0.4322 0.5300
vn -0.7310 0.4284 0.5311
vn 0.5354 0.3381 0.7740
vn 0.2787 0.4322 0.8576
vn -0.1876 -0.7947 0.5773
vn -0.5346 -0.3304 -0.7779
vn -0.3066 0.1256 -0.9435
vn 0.7947 -0.1876 0.5773
vn 0.5746 -0.3304 -0.7488
vn -0.8881 0.3381 -0.3114
vn -0.7295 0.4322 -0.5300
vn 0.9824 0.1867 0.0000
vn 0.9048 0.3296 0.2695
vn 0.0233 0.3296 0.9438
vn 0.9048 0.3296 -0.2695
vn 0.5359 0.3296 0.7773
vn 0.3036 0.1867 0.9343
vn 0.8026 0.1256 -0.5831
vn -0.3035 -0.1876 -0.9342
vn 0.4911 -0.7947 0.3568
vn 0.4089 -0.6617 0.6284
vn 0.3066 -0.1256 -0.9435
vn -0.8026 -0.1256 -0.5831
vn -0.5346 -0.3304 0.7779
vn 0.5746 -0.3304 0.7488
vn 0.8897 -0.3304 -0.3151
vn -0.0247 -0.3304 -0.9435
vn -0.7002 -0.6617 0.2680
vn -0.1876 -0.7947 -0.5773
vn 0.4911 -0.7947 -0.3568
vn -0.9050 -0.3304 0.2680
vn 0.7240 -0.6617 -0.1947
vn -0.9822 -0.1876 0.0000
vn -0.3313 -0.9435 0.0000
vn -0.6071 -0.7947 0.0000
vn -0.9921 0.1256 0.0000
vn 0.7240 -0.6617 0.1947
vn 0.3066 -0.1256 0.9435
vn 0.9921 -0.1256 0.0000
vn -0.5706 0.3381 -0.7484
vn -0.8026 -0.1256 0.5831
vn 0.9015 0.3381 0.2700
vn 0.5354 0.3381 -0.7740
vn -0.8881 0.3381 0.3114
vn 0.0218 0.3381 0.9409
vn -0.4713 -0.6617 -0.5831
vn 0.0385 -0.6617 -0.7488
vn -0.1024 -0.9435 0.3151
vn 0.2680 -0.9435 -0.1947
vn -0.9050 -0.3304 -0.2680
vn 0.2680 -0.9435 0.1947
vn -0.7002 -0.6617 -0.2680
vn -0.1024 -0.9435 -0.3151
s off
f 7//1 2//1 20//1
f 7//2 20//2 36//2
f 6//3 23//3 35//3
f 2//4 32//4 20//4
f 3//5 36//5 23//5
f 6//6 3//6 23//6
f 11//7 38//7 22//7
f 21//8 11//8 22//8
f 30//9 26//9 31//9
f 14//10 38//10 11//10
f 29//11 28//11 31//11
f 24//12 33//12 30//12
f 12//13 24//13 32//13
f 26//14 19//14 29//14
f 28//15 25//15 31//15
f 21//16 33//16 24//16
f 21//17 22//17 33//17
f 1//18 39//18 10//18
f 15//19 11//19 37//19
f 4//20 40//20 13//20
f 8//21 10//21 34//21
f 9//22 13//22 6//22
f 19//23 35//23 29//23
f 23//24 36//24 28//24
f 12//25 21//25 24//25
f 26//26 29//26 31//26
f 29//27 23//27 28//27
f 25//28 24//28 30//28
f 25//29 30//29 31//29
f 27//30 34//30 26//30
f 30//31 27//31 26//31
f 15//32 14//32 11//32
f 17//33 41//33 7//33
f 3//34 7//34 36//34
f 8//35 1//35 10//35
f 13//36 40//36 6//36
f 20//37 32//37 25//37
f 28//38 20//38 25//38
f 10//39 9//39 19//39
f 10//40 19//40 34//40
f 22//41 27//41 33//41
f 9//42 35//42 19//42
f 8//43 34//43 27//43
f 22//44 8//44 27//44
f 9//45 6//45 35//45
f 3//46 17//46 7//46
f 14//47 16//47 1//47
f 14//48 1//48 38//48
f 40//49 3//49 6//49
f 41//50 2//50 7//50
f 37//51 11//51 21//51
f 38//52 1//52 8//52
f 39//53 13//53 9//53
f 40//54 17//54 3//54
f 18//55 15//55 37//55
f 4//56 5//56 17//56
f 16//57 4//57 13//57
f 18//58 37//58 12//58
f 16//59 13//59 39//59
f 2//60 18//60 12//60
f 5//61 42//61 15//61
f 18//62 5//62 15//62
f 2//63 12//63 32//63
f 16//64 39//64 1//64
f 38//65 8//65 22//65
f 39//66 9//66 10//66
f 36//67 20//67 28//67
f 37//68 21//68 12//68
f 34//69 19//69 26//69
f 35//70 23//70 29//70
f 32//71 24//71 25//71
f 33//72 27//72 30//72
f 5//73 41//73 17//73
f 4//74 17//74 40//74
f 42//75 14//75 15//75
f 42//76 4//76 16//76
f 41//77 18//77 2//77
f 42//78 16//78 14//78
f 41//79 5//79 18//79
f 42//80 5//80 4//80
