# Blender v2.92.0 OBJ File: ''
# www.blender.org
o Cube
v -0.688189 0.528450 -0.499997
v -0.850648 -0.525736 0.000000
v -0.425323 -0.850654 0.309011
v 0.688189 -0.525736 -0.499997
v 0.587786 0.000000 -0.809017
v 0.951058 0.000000 0.309013
v -0.951058 0.000000 -0.309013
v 0.000000 0.000000 -1.000000
v -0.951058 0.000000 0.309013
v -0.587786 0.000000 -0.809017
v 0.951058 0.000000 -0.309013
v -0.262869 -0.525738 0.809012
v 0.688189 -0.525736 0.499997
v 0.162456 -0.850654 0.499995
v -0.587786 0.000000 0.809017
v 0.262869 0.528452 -0.809012
v 0.262869 0.528452 0.809012
v -0.162456 1.433473 -0.499995
v -0.162456 1.433473 0.499995
v 0.425323 1.433473 -0.309011
v 0.000000 2.354097 0.000000
v -0.894426 0.447216 0.000000
v -0.276388 0.447220 0.850649
v 0.723607 0.447220 0.525725
v 0.723607 0.447220 -0.525725
v -0.276388 0.447220 -0.850649
v -0.723607 -0.447220 0.525725
v 0.276388 -0.447220 0.850649
v 0.894426 -0.447216 0.000000
v 0.276388 -0.447220 -0.850649
v -0.723607 -0.447220 -0.525725
v 0.000000 -1.000000 0.000000
v 0.850648 0.528450 0.000000
v 0.000000 0.000000 1.000000
v -0.688189 0.528450 0.499997
v -0.525730 1.433460 0.000000
v 0.425323 1.433473 0.309011
v 0.162456 -0.850654 -0.499995
v 0.587786 0.000000 0.809017
v 0.525730 -0.850652 0.000000
v -0.262869 -0.525738 -0.809012
v -0.425323 -0.850654 -0.309011
vn -0.1024 -0.9435 -0.3151
vn -0.7002 -0.6617 -0.2680
vn 0.2680 -0.9435 -0.1947
vn 0.2680 -0.9435 0.1947
vn -0.1024 -0.9435 0.3151
vn -0.9050 -0.3304 -0.2680
vn -0.0247 -0.3304 -0.9435
vn 0.8897 -0.3304 -0.3151
vn 0.5746 -0.3304 0.7488
vn -0.5346 -0.3304 0.7779
vn -0.8026 -0.1256 -0.5831
vn 0.3066 -0.1256 -0.9435
vn 0.9921 -0.1256 0.0000
vn 0.3066 -0.1256 0.9435
vn -0.8026 -0.1256 0.5831
vn -0.5725 0.3326 -0.7494
vn 0.5358 0.3326 -0.7761
vn 0.9037 0.3326 0.2698
vn 0.0227 0.3326 0.9428
vn -0.8896 0.3326 0.3129
vn -0.7344 0.4194 0.5336
vn -0.7322 0.4253 0.5320
vn -0.5725 0.3326 0.7494
vn 0.2805 0.4194 0.8634
vn 0.2797 0.4253 0.8607
vn 0.5358 0.3326 0.7761
vn 0.9078 0.4194 0.0000
vn 0.9050 0.4253 0.0000
vn 0.9037 0.3326 -0.2698
vn 0.2805 0.4194 -0.8634
vn 0.2797 0.4253 -0.8607
vn 0.0227 0.3326 -0.9428
vn -0.7344 0.4194 -0.5336
vn -0.7322 0.4253 -0.5320
vn -0.8896 0.3326 -0.3129
vn -0.8905 0.3296 0.3138
vn -0.7948 0.1867 0.5775
vn -0.5736 0.3296 0.7499
vn 0.0232 0.3296 0.9438
vn 0.3036 0.1867 0.9343
vn 0.5360 0.3296 0.7772
vn 0.9048 0.3296 0.2696
vn 0.9824 0.1867 0.0000
vn 0.9048 0.3296 -0.2696
vn 0.5360 0.3296 -0.7772
vn 0.3036 0.1867 -0.9343
vn 0.0232 0.3296 -0.9438
vn -0.5736 0.3296 -0.7499
vn -0.7948 0.1867 -0.5775
vn -0.8905 0.3296 -0.3138
vn -0.3066 0.1256 0.9435
vn -0.3035 -0.1876 0.9342
vn -0.0247 -0.3304 0.9435
vn 0.8026 0.1256 0.5831
vn 0.7947 -0.1876 0.5773
vn 0.8897 -0.3304 0.3151
vn 0.8026 0.1256 -0.5831
vn 0.7947 -0.1876 -0.5773
vn 0.5746 -0.3304 -0.7488
vn -0.3066 0.1256 -0.9435
vn -0.3035 -0.1876 -0.9342
vn -0.5346 -0.3304 -0.7779
vn -0.9921 0.1256 0.0000
vn -0.9822 -0.1876 0.0000
vn -0.9050 -0.3304 0.2680
vn -0.4713 -0.6617 0.5831
vn -0.1876 -0.7947 0.5773
vn 0.0385 -0.6617 0.7488
vn 0.4089 -0.6617 0.6284
vn 0.4911 -0.7947 0.3568
vn 0.7240 -0.6617 0.1947
vn 0.7240 -0.6617 -0.1947
vn 0.4911 -0.7947 -0.3568
vn 0.4089 -0.6617 -0.6284
vn -0.7002 -0.6617 0.2680
vn -0.6071 -0.7947 0.0000
vn -0.3313 -0.9435 0.0000
vn 0.0385 -0.6617 -0.7488
vn -0.1876 -0.7947 -0.5773
vn -0.4713 -0.6617 -0.5831
s off
f 32//1 42//1 38//1
f 31//2 42//2 2//2
f 32//3 38//3 40//3
f 32//4 40//4 14//4
f 32//5 14//5 3//5
f 31//6 2//6 7//6
f 30//7 41//7 8//7
f 29//8 4//8 11//8
f 28//9 13//9 39//9
f 27//10 12//10 15//10
f 31//11 7//11 10//11
f 30//12 8//12 5//12
f 29//13 11//13 6//13
f 28//14 39//14 34//14
f 27//15 15//15 9//15
f 26//16 1//16 18//16
f 25//17 16//17 20//17
f 24//18 33//18 37//18
f 23//19 17//19 19//19
f 22//20 35//20 36//20
f 36//21 19//21 21//21
f 36//22 35//22 19//22
f 35//23 23//23 19//23
f 19//24 37//24 21//24
f 19//25 17//25 37//25
f 17//26 24//26 37//26
f 37//27 20//27 21//27
f 37//28 33//28 20//28
f 33//29 25//29 20//29
f 20//30 18//30 21//30
f 20//31 16//31 18//31
f 16//32 26//32 18//32
f 18//33 36//33 21//33
f 18//34 1//34 36//34
f 1//35 22//35 36//35
f 9//36 35//36 22//36
f 9//37 15//37 35//37
f 15//38 23//38 35//38
f 34//39 17//39 23//39
f 34//40 39//40 17//40
f 39//41 24//41 17//41
f 6//42 33//42 24//42
f 6//43 11//43 33//43
f 11//44 25//44 33//44
f 5//45 16//45 25//45
f 5//46 8//46 16//46
f 8//47 26//47 16//47
f 10//48 1//48 26//48
f 10//49 7//49 1//49
f 7//50 22//50 1//50
f 15//51 34//51 23//51
f 15//52 12//52 34//52
f 12//53 28//53 34//53
f 39//54 6//54 24//54
f 39//55 13//55 6//55
f 13//56 29//56 6//56
f 11//57 5//57 25//57
f 11//58 4//58 5//58
f 4//59 30//59 5//59
f 8//60 10//60 26//60
f 8//61 41//61 10//61
f 41//62 31//62 10//62
f 7//63 9//63 22//63
f 7//64 2//64 9//64
f 2//65 27//65 9//65
f 3//66 12//66 27//66
f 3//67 14//67 12//67
f 14//68 28//68 12//68
f 14//69 13//69 28//69
f 14//70 40//70 13//70
f 40//71 29//71 13//71
f 40//72 4//72 29//72
f 40//73 38//73 4//73
f 38//74 30//74 4//74
f 2//75 3//75 27//75
f 2//76 42//76 3//76
f 42//77 32//77 3//77
f 38//78 41//78 30//78
f 38//79 42//79 41//79
f 42//80 31//80 41//80
