# Blender v2.92.0 OBJ File: ''
# www.blender.org
o Cube_Cube.001
v 1.870324 -1.000000 -1.000000
v 1.000000 1.000000 -1.000000
v 1.870324 -1.000000 1.000000
v 1.000000 1.000000 1.000000
v -1.000000 -1.000000 -1.000000
v -1.957855 1.000000 -1.000000
v -1.000000 -1.000000 1.000000
v -1.957855 1.000000 1.000000
v 1.169913 -0.629844 -1.375625
v 0.621744 0.629844 -1.375625
v -1.241244 0.629844 -1.375625
v -0.637944 -0.629844 -1.375625
v 2.806315 -0.592692 1.000000
v 2.806315 -0.592692 -1.000000
v 1.935992 1.407308 -1.000000
v 1.935992 1.407308 1.000000
v 0.423560 1.440029 -0.610231
v 0.423560 1.440029 0.610231
v -1.381415 1.440029 0.610231
v -1.381415 1.440029 -0.610231
vn -0.3990 0.9169 0.0000
vn 0.0000 0.0000 1.0000
vn -0.9019 -0.4319 0.0000
vn 0.0000 -0.7123 -0.7019
vn 0.0000 -1.0000 0.0000
vn -0.6068 0.7949 0.0000
vn 0.0000 0.0000 -1.0000
vn 0.0000 0.7123 -0.7019
vn -0.5512 -0.2640 -0.7915
vn 0.5546 0.2413 -0.7963
vn 0.9169 0.3990 0.0000
vn 0.3990 -0.9169 0.0000
vn 0.0000 1.0000 0.0000
vn 0.6068 0.7949 0.0000
vn 0.0000 0.6631 -0.7486
vn 0.0000 0.6631 0.7486
s off
f 4//1 15//1 2//1
f 4//2 7//2 3//2
f 8//3 5//3 7//3
f 5//4 9//4 1//4
f 7//5 1//5 3//5
f 8//6 20//6 6//6
f 12//7 10//7 9//7
f 2//8 11//8 6//8
f 5//9 11//9 12//9
f 2//10 9//10 10//10
f 15//11 13//11 14//11
f 1//12 13//12 3//12
f 3//2 16//2 4//2
f 1//7 15//7 14//7
f 18//13 20//13 19//13
f 2//14 18//14 4//14
f 6//15 17//15 2//15
f 4//16 19//16 8//16
f 4//1 16//1 15//1
f 4//2 8//2 7//2
f 8//3 6//3 5//3
f 5//4 12//4 9//4
f 7//5 5//5 1//5
f 8//6 19//6 20//6
f 12//7 11//7 10//7
f 2//8 10//8 11//8
f 5//9 6//9 11//9
f 2//10 1//10 9//10
f 15//11 16//11 13//11
f 1//12 14//12 13//12
f 3//2 13//2 16//2
f 1//7 2//7 15//7
f 18//13 17//13 20//13
f 2//14 17//14 18//14
f 6//15 20//15 17//15
f 4//16 18//16 19//16
